G04 #@! TF.GenerationSoftware,KiCad,Pcbnew,8.0.6*
G04 #@! TF.CreationDate,2025-05-08T21:35:26+02:00*
G04 #@! TF.ProjectId,Relay_board,52656c61-795f-4626-9f61-72642e6b6963,rev?*
G04 #@! TF.SameCoordinates,Original*
G04 #@! TF.FileFunction,Legend,Top*
G04 #@! TF.FilePolarity,Positive*
%FSLAX46Y46*%
G04 Gerber Fmt 4.6, Leading zero omitted, Abs format (unit mm)*
G04 Created by KiCad (PCBNEW 8.0.6) date 2025-05-08 21:35:26*
%MOMM*%
%LPD*%
G01*
G04 APERTURE LIST*
G04 Aperture macros list*
%AMRoundRect*
0 Rectangle with rounded corners*
0 $1 Rounding radius*
0 $2 $3 $4 $5 $6 $7 $8 $9 X,Y pos of 4 corners*
0 Add a 4 corners polygon primitive as box body*
4,1,4,$2,$3,$4,$5,$6,$7,$8,$9,$2,$3,0*
0 Add four circle primitives for the rounded corners*
1,1,$1+$1,$2,$3*
1,1,$1+$1,$4,$5*
1,1,$1+$1,$6,$7*
1,1,$1+$1,$8,$9*
0 Add four rect primitives between the rounded corners*
20,1,$1+$1,$2,$3,$4,$5,0*
20,1,$1+$1,$4,$5,$6,$7,0*
20,1,$1+$1,$6,$7,$8,$9,0*
20,1,$1+$1,$8,$9,$2,$3,0*%
G04 Aperture macros list end*
%ADD10C,0.500000*%
%ADD11C,0.100000*%
%ADD12C,0.150000*%
%ADD13C,0.120000*%
%ADD14C,1.400000*%
%ADD15O,1.400000X1.400000*%
%ADD16RoundRect,0.250001X0.624999X-0.462499X0.624999X0.462499X-0.624999X0.462499X-0.624999X-0.462499X0*%
%ADD17R,3.000000X3.000000*%
%ADD18C,3.000000*%
%ADD19RoundRect,0.150000X-0.587500X-0.150000X0.587500X-0.150000X0.587500X0.150000X-0.587500X0.150000X0*%
%ADD20R,1.600000X1.600000*%
%ADD21O,1.600000X1.600000*%
%ADD22C,2.500000*%
%ADD23R,2.200000X2.200000*%
%ADD24O,2.200000X2.200000*%
%ADD25R,1.350000X1.350000*%
%ADD26O,1.350000X1.350000*%
G04 APERTURE END LIST*
D10*
X164000000Y-71000000D02*
X165500000Y-71000000D01*
X165500000Y-112000000D02*
X165500000Y-115500000D01*
X165500000Y-71000000D02*
X165500000Y-67000000D01*
X164000000Y-61000000D02*
X165500000Y-61000000D01*
X165000000Y-101000000D02*
X165500000Y-100000000D01*
X164000000Y-81750000D02*
X165000000Y-81750000D01*
X165000000Y-66000000D02*
X165500000Y-65000000D01*
X164000000Y-101000000D02*
X165000000Y-101000000D01*
X164000000Y-86750000D02*
X165500000Y-86750000D01*
X165500000Y-106000000D02*
X165500000Y-102000000D01*
X164000000Y-96000000D02*
X165500000Y-96000000D01*
X164000000Y-76750000D02*
X165500000Y-76750000D01*
X164000000Y-112000000D02*
X165500000Y-112000000D01*
X165500000Y-96000000D02*
X165500000Y-99500000D01*
X165000000Y-117000000D02*
X165500000Y-116000000D01*
X165500000Y-61000000D02*
X165500000Y-64500000D01*
X164000000Y-106000000D02*
X165500000Y-106000000D01*
X165500000Y-86750000D02*
X165500000Y-82750000D01*
X164000000Y-122000000D02*
X165500000Y-122000000D01*
X164000000Y-117000000D02*
X165000000Y-117000000D01*
X165500000Y-76750000D02*
X165500000Y-80250000D01*
X165000000Y-81750000D02*
X165500000Y-80750000D01*
X164000000Y-66000000D02*
X165000000Y-66000000D01*
X165500000Y-122000000D02*
X165500000Y-118000000D01*
D11*
X104816390Y-97315163D02*
X105316390Y-97315163D01*
X104816390Y-97077068D02*
X105316390Y-97077068D01*
X105316390Y-97077068D02*
X104816390Y-96791354D01*
X104816390Y-96791354D02*
X105316390Y-96791354D01*
X105149723Y-96338972D02*
X104816390Y-96338972D01*
X105340200Y-96458020D02*
X104983057Y-96577067D01*
X104983057Y-96577067D02*
X104983057Y-96267544D01*
X104816390Y-93315163D02*
X105316390Y-93315163D01*
X104816390Y-93077068D02*
X105316390Y-93077068D01*
X105316390Y-93077068D02*
X104816390Y-92791354D01*
X104816390Y-92791354D02*
X105316390Y-92791354D01*
X105268771Y-92577067D02*
X105292580Y-92553258D01*
X105292580Y-92553258D02*
X105316390Y-92505639D01*
X105316390Y-92505639D02*
X105316390Y-92386591D01*
X105316390Y-92386591D02*
X105292580Y-92338972D01*
X105292580Y-92338972D02*
X105268771Y-92315163D01*
X105268771Y-92315163D02*
X105221152Y-92291353D01*
X105221152Y-92291353D02*
X105173533Y-92291353D01*
X105173533Y-92291353D02*
X105102104Y-92315163D01*
X105102104Y-92315163D02*
X104816390Y-92600877D01*
X104816390Y-92600877D02*
X104816390Y-92291353D01*
D12*
X106130180Y-109408207D02*
X106606371Y-109074874D01*
X106130180Y-108836779D02*
X107130180Y-108836779D01*
X107130180Y-108836779D02*
X107130180Y-109217731D01*
X107130180Y-109217731D02*
X107082561Y-109312969D01*
X107082561Y-109312969D02*
X107034942Y-109360588D01*
X107034942Y-109360588D02*
X106939704Y-109408207D01*
X106939704Y-109408207D02*
X106796847Y-109408207D01*
X106796847Y-109408207D02*
X106701609Y-109360588D01*
X106701609Y-109360588D02*
X106653990Y-109312969D01*
X106653990Y-109312969D02*
X106606371Y-109217731D01*
X106606371Y-109217731D02*
X106606371Y-108836779D01*
X106177800Y-110217731D02*
X106130180Y-110122493D01*
X106130180Y-110122493D02*
X106130180Y-109932017D01*
X106130180Y-109932017D02*
X106177800Y-109836779D01*
X106177800Y-109836779D02*
X106273038Y-109789160D01*
X106273038Y-109789160D02*
X106653990Y-109789160D01*
X106653990Y-109789160D02*
X106749228Y-109836779D01*
X106749228Y-109836779D02*
X106796847Y-109932017D01*
X106796847Y-109932017D02*
X106796847Y-110122493D01*
X106796847Y-110122493D02*
X106749228Y-110217731D01*
X106749228Y-110217731D02*
X106653990Y-110265350D01*
X106653990Y-110265350D02*
X106558752Y-110265350D01*
X106558752Y-110265350D02*
X106463514Y-109789160D01*
X106130180Y-110836779D02*
X106177800Y-110741541D01*
X106177800Y-110741541D02*
X106273038Y-110693922D01*
X106273038Y-110693922D02*
X107130180Y-110693922D01*
X106130180Y-111646303D02*
X106653990Y-111646303D01*
X106653990Y-111646303D02*
X106749228Y-111598684D01*
X106749228Y-111598684D02*
X106796847Y-111503446D01*
X106796847Y-111503446D02*
X106796847Y-111312970D01*
X106796847Y-111312970D02*
X106749228Y-111217732D01*
X106177800Y-111646303D02*
X106130180Y-111551065D01*
X106130180Y-111551065D02*
X106130180Y-111312970D01*
X106130180Y-111312970D02*
X106177800Y-111217732D01*
X106177800Y-111217732D02*
X106273038Y-111170113D01*
X106273038Y-111170113D02*
X106368276Y-111170113D01*
X106368276Y-111170113D02*
X106463514Y-111217732D01*
X106463514Y-111217732D02*
X106511133Y-111312970D01*
X106511133Y-111312970D02*
X106511133Y-111551065D01*
X106511133Y-111551065D02*
X106558752Y-111646303D01*
X106796847Y-112027256D02*
X106130180Y-112265351D01*
X106796847Y-112503446D02*
X106130180Y-112265351D01*
X106130180Y-112265351D02*
X105892085Y-112170113D01*
X105892085Y-112170113D02*
X105844466Y-112122494D01*
X105844466Y-112122494D02*
X105796847Y-112027256D01*
X106653990Y-113979637D02*
X106606371Y-114122494D01*
X106606371Y-114122494D02*
X106558752Y-114170113D01*
X106558752Y-114170113D02*
X106463514Y-114217732D01*
X106463514Y-114217732D02*
X106320657Y-114217732D01*
X106320657Y-114217732D02*
X106225419Y-114170113D01*
X106225419Y-114170113D02*
X106177800Y-114122494D01*
X106177800Y-114122494D02*
X106130180Y-114027256D01*
X106130180Y-114027256D02*
X106130180Y-113646304D01*
X106130180Y-113646304D02*
X107130180Y-113646304D01*
X107130180Y-113646304D02*
X107130180Y-113979637D01*
X107130180Y-113979637D02*
X107082561Y-114074875D01*
X107082561Y-114074875D02*
X107034942Y-114122494D01*
X107034942Y-114122494D02*
X106939704Y-114170113D01*
X106939704Y-114170113D02*
X106844466Y-114170113D01*
X106844466Y-114170113D02*
X106749228Y-114122494D01*
X106749228Y-114122494D02*
X106701609Y-114074875D01*
X106701609Y-114074875D02*
X106653990Y-113979637D01*
X106653990Y-113979637D02*
X106653990Y-113646304D01*
X106130180Y-114789161D02*
X106177800Y-114693923D01*
X106177800Y-114693923D02*
X106225419Y-114646304D01*
X106225419Y-114646304D02*
X106320657Y-114598685D01*
X106320657Y-114598685D02*
X106606371Y-114598685D01*
X106606371Y-114598685D02*
X106701609Y-114646304D01*
X106701609Y-114646304D02*
X106749228Y-114693923D01*
X106749228Y-114693923D02*
X106796847Y-114789161D01*
X106796847Y-114789161D02*
X106796847Y-114932018D01*
X106796847Y-114932018D02*
X106749228Y-115027256D01*
X106749228Y-115027256D02*
X106701609Y-115074875D01*
X106701609Y-115074875D02*
X106606371Y-115122494D01*
X106606371Y-115122494D02*
X106320657Y-115122494D01*
X106320657Y-115122494D02*
X106225419Y-115074875D01*
X106225419Y-115074875D02*
X106177800Y-115027256D01*
X106177800Y-115027256D02*
X106130180Y-114932018D01*
X106130180Y-114932018D02*
X106130180Y-114789161D01*
X106130180Y-115979637D02*
X106653990Y-115979637D01*
X106653990Y-115979637D02*
X106749228Y-115932018D01*
X106749228Y-115932018D02*
X106796847Y-115836780D01*
X106796847Y-115836780D02*
X106796847Y-115646304D01*
X106796847Y-115646304D02*
X106749228Y-115551066D01*
X106177800Y-115979637D02*
X106130180Y-115884399D01*
X106130180Y-115884399D02*
X106130180Y-115646304D01*
X106130180Y-115646304D02*
X106177800Y-115551066D01*
X106177800Y-115551066D02*
X106273038Y-115503447D01*
X106273038Y-115503447D02*
X106368276Y-115503447D01*
X106368276Y-115503447D02*
X106463514Y-115551066D01*
X106463514Y-115551066D02*
X106511133Y-115646304D01*
X106511133Y-115646304D02*
X106511133Y-115884399D01*
X106511133Y-115884399D02*
X106558752Y-115979637D01*
X106130180Y-116455828D02*
X106796847Y-116455828D01*
X106606371Y-116455828D02*
X106701609Y-116503447D01*
X106701609Y-116503447D02*
X106749228Y-116551066D01*
X106749228Y-116551066D02*
X106796847Y-116646304D01*
X106796847Y-116646304D02*
X106796847Y-116741542D01*
X106130180Y-117503447D02*
X107130180Y-117503447D01*
X106177800Y-117503447D02*
X106130180Y-117408209D01*
X106130180Y-117408209D02*
X106130180Y-117217733D01*
X106130180Y-117217733D02*
X106177800Y-117122495D01*
X106177800Y-117122495D02*
X106225419Y-117074876D01*
X106225419Y-117074876D02*
X106320657Y-117027257D01*
X106320657Y-117027257D02*
X106606371Y-117027257D01*
X106606371Y-117027257D02*
X106701609Y-117074876D01*
X106701609Y-117074876D02*
X106749228Y-117122495D01*
X106749228Y-117122495D02*
X106796847Y-117217733D01*
X106796847Y-117217733D02*
X106796847Y-117408209D01*
X106796847Y-117408209D02*
X106749228Y-117503447D01*
X106130180Y-118646305D02*
X106796847Y-119170114D01*
X106796847Y-118646305D02*
X106130180Y-119170114D01*
X106796847Y-119979638D02*
X106130180Y-119979638D01*
X107177800Y-119741543D02*
X106463514Y-119503448D01*
X106463514Y-119503448D02*
X106463514Y-120122495D01*
X106511133Y-120503448D02*
X106511133Y-121265353D01*
X106796847Y-121646305D02*
X106130180Y-121884400D01*
X106130180Y-121884400D02*
X106796847Y-122122495D01*
X106130180Y-123027257D02*
X106130180Y-122455829D01*
X106130180Y-122741543D02*
X107130180Y-122741543D01*
X107130180Y-122741543D02*
X106987323Y-122646305D01*
X106987323Y-122646305D02*
X106892085Y-122551067D01*
X106892085Y-122551067D02*
X106844466Y-122455829D01*
D11*
X104816390Y-91315163D02*
X105316390Y-91315163D01*
X104816390Y-91077068D02*
X105316390Y-91077068D01*
X105316390Y-91077068D02*
X104816390Y-90791354D01*
X104816390Y-90791354D02*
X105316390Y-90791354D01*
X104816390Y-90291353D02*
X104816390Y-90577067D01*
X104816390Y-90434210D02*
X105316390Y-90434210D01*
X105316390Y-90434210D02*
X105244961Y-90481829D01*
X105244961Y-90481829D02*
X105197342Y-90529448D01*
X105197342Y-90529448D02*
X105173533Y-90577067D01*
X105316390Y-99386591D02*
X104816390Y-99219925D01*
X104816390Y-99219925D02*
X105316390Y-99053258D01*
X104864009Y-98600878D02*
X104840200Y-98624687D01*
X104840200Y-98624687D02*
X104816390Y-98696116D01*
X104816390Y-98696116D02*
X104816390Y-98743735D01*
X104816390Y-98743735D02*
X104840200Y-98815163D01*
X104840200Y-98815163D02*
X104887819Y-98862782D01*
X104887819Y-98862782D02*
X104935438Y-98886592D01*
X104935438Y-98886592D02*
X105030676Y-98910401D01*
X105030676Y-98910401D02*
X105102104Y-98910401D01*
X105102104Y-98910401D02*
X105197342Y-98886592D01*
X105197342Y-98886592D02*
X105244961Y-98862782D01*
X105244961Y-98862782D02*
X105292580Y-98815163D01*
X105292580Y-98815163D02*
X105316390Y-98743735D01*
X105316390Y-98743735D02*
X105316390Y-98696116D01*
X105316390Y-98696116D02*
X105292580Y-98624687D01*
X105292580Y-98624687D02*
X105268771Y-98600878D01*
X104864009Y-98100878D02*
X104840200Y-98124687D01*
X104840200Y-98124687D02*
X104816390Y-98196116D01*
X104816390Y-98196116D02*
X104816390Y-98243735D01*
X104816390Y-98243735D02*
X104840200Y-98315163D01*
X104840200Y-98315163D02*
X104887819Y-98362782D01*
X104887819Y-98362782D02*
X104935438Y-98386592D01*
X104935438Y-98386592D02*
X105030676Y-98410401D01*
X105030676Y-98410401D02*
X105102104Y-98410401D01*
X105102104Y-98410401D02*
X105197342Y-98386592D01*
X105197342Y-98386592D02*
X105244961Y-98362782D01*
X105244961Y-98362782D02*
X105292580Y-98315163D01*
X105292580Y-98315163D02*
X105316390Y-98243735D01*
X105316390Y-98243735D02*
X105316390Y-98196116D01*
X105316390Y-98196116D02*
X105292580Y-98124687D01*
X105292580Y-98124687D02*
X105268771Y-98100878D01*
X107127580Y-59303884D02*
X108127580Y-59303884D01*
X107127580Y-59780074D02*
X108127580Y-59780074D01*
X108127580Y-59780074D02*
X107127580Y-60351502D01*
X107127580Y-60351502D02*
X108127580Y-60351502D01*
X107127580Y-61351502D02*
X107127580Y-60780074D01*
X107127580Y-61065788D02*
X108127580Y-61065788D01*
X108127580Y-61065788D02*
X107984723Y-60970550D01*
X107984723Y-60970550D02*
X107889485Y-60875312D01*
X107889485Y-60875312D02*
X107841866Y-60780074D01*
D12*
X107740124Y-66336779D02*
X108740124Y-66336779D01*
X108740124Y-66336779D02*
X108740124Y-66574874D01*
X108740124Y-66574874D02*
X108692505Y-66717731D01*
X108692505Y-66717731D02*
X108597267Y-66812969D01*
X108597267Y-66812969D02*
X108502029Y-66860588D01*
X108502029Y-66860588D02*
X108311553Y-66908207D01*
X108311553Y-66908207D02*
X108168696Y-66908207D01*
X108168696Y-66908207D02*
X107978220Y-66860588D01*
X107978220Y-66860588D02*
X107882982Y-66812969D01*
X107882982Y-66812969D02*
X107787744Y-66717731D01*
X107787744Y-66717731D02*
X107740124Y-66574874D01*
X107740124Y-66574874D02*
X107740124Y-66336779D01*
X107787744Y-67717731D02*
X107740124Y-67622493D01*
X107740124Y-67622493D02*
X107740124Y-67432017D01*
X107740124Y-67432017D02*
X107787744Y-67336779D01*
X107787744Y-67336779D02*
X107882982Y-67289160D01*
X107882982Y-67289160D02*
X108263934Y-67289160D01*
X108263934Y-67289160D02*
X108359172Y-67336779D01*
X108359172Y-67336779D02*
X108406791Y-67432017D01*
X108406791Y-67432017D02*
X108406791Y-67622493D01*
X108406791Y-67622493D02*
X108359172Y-67717731D01*
X108359172Y-67717731D02*
X108263934Y-67765350D01*
X108263934Y-67765350D02*
X108168696Y-67765350D01*
X108168696Y-67765350D02*
X108073458Y-67289160D01*
X107787744Y-68146303D02*
X107740124Y-68241541D01*
X107740124Y-68241541D02*
X107740124Y-68432017D01*
X107740124Y-68432017D02*
X107787744Y-68527255D01*
X107787744Y-68527255D02*
X107882982Y-68574874D01*
X107882982Y-68574874D02*
X107930601Y-68574874D01*
X107930601Y-68574874D02*
X108025839Y-68527255D01*
X108025839Y-68527255D02*
X108073458Y-68432017D01*
X108073458Y-68432017D02*
X108073458Y-68289160D01*
X108073458Y-68289160D02*
X108121077Y-68193922D01*
X108121077Y-68193922D02*
X108216315Y-68146303D01*
X108216315Y-68146303D02*
X108263934Y-68146303D01*
X108263934Y-68146303D02*
X108359172Y-68193922D01*
X108359172Y-68193922D02*
X108406791Y-68289160D01*
X108406791Y-68289160D02*
X108406791Y-68432017D01*
X108406791Y-68432017D02*
X108359172Y-68527255D01*
X107740124Y-69003446D02*
X108406791Y-69003446D01*
X108740124Y-69003446D02*
X108692505Y-68955827D01*
X108692505Y-68955827D02*
X108644886Y-69003446D01*
X108644886Y-69003446D02*
X108692505Y-69051065D01*
X108692505Y-69051065D02*
X108740124Y-69003446D01*
X108740124Y-69003446D02*
X108644886Y-69003446D01*
X108406791Y-69908207D02*
X107597267Y-69908207D01*
X107597267Y-69908207D02*
X107502029Y-69860588D01*
X107502029Y-69860588D02*
X107454410Y-69812969D01*
X107454410Y-69812969D02*
X107406791Y-69717731D01*
X107406791Y-69717731D02*
X107406791Y-69574874D01*
X107406791Y-69574874D02*
X107454410Y-69479636D01*
X107787744Y-69908207D02*
X107740124Y-69812969D01*
X107740124Y-69812969D02*
X107740124Y-69622493D01*
X107740124Y-69622493D02*
X107787744Y-69527255D01*
X107787744Y-69527255D02*
X107835363Y-69479636D01*
X107835363Y-69479636D02*
X107930601Y-69432017D01*
X107930601Y-69432017D02*
X108216315Y-69432017D01*
X108216315Y-69432017D02*
X108311553Y-69479636D01*
X108311553Y-69479636D02*
X108359172Y-69527255D01*
X108359172Y-69527255D02*
X108406791Y-69622493D01*
X108406791Y-69622493D02*
X108406791Y-69812969D01*
X108406791Y-69812969D02*
X108359172Y-69908207D01*
X108406791Y-70384398D02*
X107740124Y-70384398D01*
X108311553Y-70384398D02*
X108359172Y-70432017D01*
X108359172Y-70432017D02*
X108406791Y-70527255D01*
X108406791Y-70527255D02*
X108406791Y-70670112D01*
X108406791Y-70670112D02*
X108359172Y-70765350D01*
X108359172Y-70765350D02*
X108263934Y-70812969D01*
X108263934Y-70812969D02*
X107740124Y-70812969D01*
X107787744Y-71670112D02*
X107740124Y-71574874D01*
X107740124Y-71574874D02*
X107740124Y-71384398D01*
X107740124Y-71384398D02*
X107787744Y-71289160D01*
X107787744Y-71289160D02*
X107882982Y-71241541D01*
X107882982Y-71241541D02*
X108263934Y-71241541D01*
X108263934Y-71241541D02*
X108359172Y-71289160D01*
X108359172Y-71289160D02*
X108406791Y-71384398D01*
X108406791Y-71384398D02*
X108406791Y-71574874D01*
X108406791Y-71574874D02*
X108359172Y-71670112D01*
X108359172Y-71670112D02*
X108263934Y-71717731D01*
X108263934Y-71717731D02*
X108168696Y-71717731D01*
X108168696Y-71717731D02*
X108073458Y-71241541D01*
X107740124Y-72574874D02*
X108740124Y-72574874D01*
X107787744Y-72574874D02*
X107740124Y-72479636D01*
X107740124Y-72479636D02*
X107740124Y-72289160D01*
X107740124Y-72289160D02*
X107787744Y-72193922D01*
X107787744Y-72193922D02*
X107835363Y-72146303D01*
X107835363Y-72146303D02*
X107930601Y-72098684D01*
X107930601Y-72098684D02*
X108216315Y-72098684D01*
X108216315Y-72098684D02*
X108311553Y-72146303D01*
X108311553Y-72146303D02*
X108359172Y-72193922D01*
X108359172Y-72193922D02*
X108406791Y-72289160D01*
X108406791Y-72289160D02*
X108406791Y-72479636D01*
X108406791Y-72479636D02*
X108359172Y-72574874D01*
X108263934Y-74146303D02*
X108216315Y-74289160D01*
X108216315Y-74289160D02*
X108168696Y-74336779D01*
X108168696Y-74336779D02*
X108073458Y-74384398D01*
X108073458Y-74384398D02*
X107930601Y-74384398D01*
X107930601Y-74384398D02*
X107835363Y-74336779D01*
X107835363Y-74336779D02*
X107787744Y-74289160D01*
X107787744Y-74289160D02*
X107740124Y-74193922D01*
X107740124Y-74193922D02*
X107740124Y-73812970D01*
X107740124Y-73812970D02*
X108740124Y-73812970D01*
X108740124Y-73812970D02*
X108740124Y-74146303D01*
X108740124Y-74146303D02*
X108692505Y-74241541D01*
X108692505Y-74241541D02*
X108644886Y-74289160D01*
X108644886Y-74289160D02*
X108549648Y-74336779D01*
X108549648Y-74336779D02*
X108454410Y-74336779D01*
X108454410Y-74336779D02*
X108359172Y-74289160D01*
X108359172Y-74289160D02*
X108311553Y-74241541D01*
X108311553Y-74241541D02*
X108263934Y-74146303D01*
X108263934Y-74146303D02*
X108263934Y-73812970D01*
X108406791Y-74717732D02*
X107740124Y-74955827D01*
X108406791Y-75193922D02*
X107740124Y-74955827D01*
X107740124Y-74955827D02*
X107502029Y-74860589D01*
X107502029Y-74860589D02*
X107454410Y-74812970D01*
X107454410Y-74812970D02*
X107406791Y-74717732D01*
X106177800Y-66289160D02*
X106130180Y-66432017D01*
X106130180Y-66432017D02*
X106130180Y-66670112D01*
X106130180Y-66670112D02*
X106177800Y-66765350D01*
X106177800Y-66765350D02*
X106225419Y-66812969D01*
X106225419Y-66812969D02*
X106320657Y-66860588D01*
X106320657Y-66860588D02*
X106415895Y-66860588D01*
X106415895Y-66860588D02*
X106511133Y-66812969D01*
X106511133Y-66812969D02*
X106558752Y-66765350D01*
X106558752Y-66765350D02*
X106606371Y-66670112D01*
X106606371Y-66670112D02*
X106653990Y-66479636D01*
X106653990Y-66479636D02*
X106701609Y-66384398D01*
X106701609Y-66384398D02*
X106749228Y-66336779D01*
X106749228Y-66336779D02*
X106844466Y-66289160D01*
X106844466Y-66289160D02*
X106939704Y-66289160D01*
X106939704Y-66289160D02*
X107034942Y-66336779D01*
X107034942Y-66336779D02*
X107082561Y-66384398D01*
X107082561Y-66384398D02*
X107130180Y-66479636D01*
X107130180Y-66479636D02*
X107130180Y-66717731D01*
X107130180Y-66717731D02*
X107082561Y-66860588D01*
X106130180Y-67432017D02*
X106177800Y-67336779D01*
X106177800Y-67336779D02*
X106273038Y-67289160D01*
X106273038Y-67289160D02*
X107130180Y-67289160D01*
X106130180Y-67812970D02*
X106796847Y-67812970D01*
X107130180Y-67812970D02*
X107082561Y-67765351D01*
X107082561Y-67765351D02*
X107034942Y-67812970D01*
X107034942Y-67812970D02*
X107082561Y-67860589D01*
X107082561Y-67860589D02*
X107130180Y-67812970D01*
X107130180Y-67812970D02*
X107034942Y-67812970D01*
X106130180Y-68289160D02*
X106796847Y-68289160D01*
X106701609Y-68289160D02*
X106749228Y-68336779D01*
X106749228Y-68336779D02*
X106796847Y-68432017D01*
X106796847Y-68432017D02*
X106796847Y-68574874D01*
X106796847Y-68574874D02*
X106749228Y-68670112D01*
X106749228Y-68670112D02*
X106653990Y-68717731D01*
X106653990Y-68717731D02*
X106130180Y-68717731D01*
X106653990Y-68717731D02*
X106749228Y-68765350D01*
X106749228Y-68765350D02*
X106796847Y-68860588D01*
X106796847Y-68860588D02*
X106796847Y-69003445D01*
X106796847Y-69003445D02*
X106749228Y-69098684D01*
X106749228Y-69098684D02*
X106653990Y-69146303D01*
X106653990Y-69146303D02*
X106130180Y-69146303D01*
X106130180Y-70384398D02*
X107130180Y-70384398D01*
X107130180Y-70384398D02*
X106415895Y-70717731D01*
X106415895Y-70717731D02*
X107130180Y-71051064D01*
X107130180Y-71051064D02*
X106130180Y-71051064D01*
X106177800Y-71479636D02*
X106130180Y-71574874D01*
X106130180Y-71574874D02*
X106130180Y-71765350D01*
X106130180Y-71765350D02*
X106177800Y-71860588D01*
X106177800Y-71860588D02*
X106273038Y-71908207D01*
X106273038Y-71908207D02*
X106320657Y-71908207D01*
X106320657Y-71908207D02*
X106415895Y-71860588D01*
X106415895Y-71860588D02*
X106463514Y-71765350D01*
X106463514Y-71765350D02*
X106463514Y-71622493D01*
X106463514Y-71622493D02*
X106511133Y-71527255D01*
X106511133Y-71527255D02*
X106606371Y-71479636D01*
X106606371Y-71479636D02*
X106653990Y-71479636D01*
X106653990Y-71479636D02*
X106749228Y-71527255D01*
X106749228Y-71527255D02*
X106796847Y-71622493D01*
X106796847Y-71622493D02*
X106796847Y-71765350D01*
X106796847Y-71765350D02*
X106749228Y-71860588D01*
X106177800Y-72717731D02*
X106130180Y-72622493D01*
X106130180Y-72622493D02*
X106130180Y-72432017D01*
X106130180Y-72432017D02*
X106177800Y-72336779D01*
X106177800Y-72336779D02*
X106273038Y-72289160D01*
X106273038Y-72289160D02*
X106653990Y-72289160D01*
X106653990Y-72289160D02*
X106749228Y-72336779D01*
X106749228Y-72336779D02*
X106796847Y-72432017D01*
X106796847Y-72432017D02*
X106796847Y-72622493D01*
X106796847Y-72622493D02*
X106749228Y-72717731D01*
X106749228Y-72717731D02*
X106653990Y-72765350D01*
X106653990Y-72765350D02*
X106558752Y-72765350D01*
X106558752Y-72765350D02*
X106463514Y-72289160D01*
X106130180Y-73193922D02*
X107130180Y-73193922D01*
X106130180Y-73622493D02*
X106653990Y-73622493D01*
X106653990Y-73622493D02*
X106749228Y-73574874D01*
X106749228Y-73574874D02*
X106796847Y-73479636D01*
X106796847Y-73479636D02*
X106796847Y-73336779D01*
X106796847Y-73336779D02*
X106749228Y-73241541D01*
X106749228Y-73241541D02*
X106701609Y-73193922D01*
X106130180Y-74241541D02*
X106177800Y-74146303D01*
X106177800Y-74146303D02*
X106273038Y-74098684D01*
X106273038Y-74098684D02*
X107130180Y-74098684D01*
X106130180Y-74622494D02*
X106796847Y-74622494D01*
X107130180Y-74622494D02*
X107082561Y-74574875D01*
X107082561Y-74574875D02*
X107034942Y-74622494D01*
X107034942Y-74622494D02*
X107082561Y-74670113D01*
X107082561Y-74670113D02*
X107130180Y-74622494D01*
X107130180Y-74622494D02*
X107034942Y-74622494D01*
D11*
X114627580Y-104553884D02*
X115627580Y-104553884D01*
X114627580Y-105030074D02*
X115627580Y-105030074D01*
X115627580Y-105030074D02*
X114627580Y-105601502D01*
X114627580Y-105601502D02*
X115627580Y-105601502D01*
X115627580Y-105982455D02*
X115627580Y-106601502D01*
X115627580Y-106601502D02*
X115246628Y-106268169D01*
X115246628Y-106268169D02*
X115246628Y-106411026D01*
X115246628Y-106411026D02*
X115199009Y-106506264D01*
X115199009Y-106506264D02*
X115151390Y-106553883D01*
X115151390Y-106553883D02*
X115056152Y-106601502D01*
X115056152Y-106601502D02*
X114818057Y-106601502D01*
X114818057Y-106601502D02*
X114722819Y-106553883D01*
X114722819Y-106553883D02*
X114675200Y-106506264D01*
X114675200Y-106506264D02*
X114627580Y-106411026D01*
X114627580Y-106411026D02*
X114627580Y-106125312D01*
X114627580Y-106125312D02*
X114675200Y-106030074D01*
X114675200Y-106030074D02*
X114722819Y-105982455D01*
X107127580Y-78303884D02*
X108127580Y-78303884D01*
X107127580Y-78780074D02*
X108127580Y-78780074D01*
X108127580Y-78780074D02*
X107127580Y-79351502D01*
X107127580Y-79351502D02*
X108127580Y-79351502D01*
X108032342Y-79780074D02*
X108079961Y-79827693D01*
X108079961Y-79827693D02*
X108127580Y-79922931D01*
X108127580Y-79922931D02*
X108127580Y-80161026D01*
X108127580Y-80161026D02*
X108079961Y-80256264D01*
X108079961Y-80256264D02*
X108032342Y-80303883D01*
X108032342Y-80303883D02*
X107937104Y-80351502D01*
X107937104Y-80351502D02*
X107841866Y-80351502D01*
X107841866Y-80351502D02*
X107699009Y-80303883D01*
X107699009Y-80303883D02*
X107127580Y-79732455D01*
X107127580Y-79732455D02*
X107127580Y-80351502D01*
X105292580Y-89053258D02*
X105316390Y-89100877D01*
X105316390Y-89100877D02*
X105316390Y-89172306D01*
X105316390Y-89172306D02*
X105292580Y-89243734D01*
X105292580Y-89243734D02*
X105244961Y-89291353D01*
X105244961Y-89291353D02*
X105197342Y-89315163D01*
X105197342Y-89315163D02*
X105102104Y-89338972D01*
X105102104Y-89338972D02*
X105030676Y-89338972D01*
X105030676Y-89338972D02*
X104935438Y-89315163D01*
X104935438Y-89315163D02*
X104887819Y-89291353D01*
X104887819Y-89291353D02*
X104840200Y-89243734D01*
X104840200Y-89243734D02*
X104816390Y-89172306D01*
X104816390Y-89172306D02*
X104816390Y-89124687D01*
X104816390Y-89124687D02*
X104840200Y-89053258D01*
X104840200Y-89053258D02*
X104864009Y-89029449D01*
X104864009Y-89029449D02*
X105030676Y-89029449D01*
X105030676Y-89029449D02*
X105030676Y-89124687D01*
X104816390Y-88815163D02*
X105316390Y-88815163D01*
X105316390Y-88815163D02*
X104816390Y-88529449D01*
X104816390Y-88529449D02*
X105316390Y-88529449D01*
X104816390Y-88291353D02*
X105316390Y-88291353D01*
X105316390Y-88291353D02*
X105316390Y-88172305D01*
X105316390Y-88172305D02*
X105292580Y-88100877D01*
X105292580Y-88100877D02*
X105244961Y-88053258D01*
X105244961Y-88053258D02*
X105197342Y-88029448D01*
X105197342Y-88029448D02*
X105102104Y-88005639D01*
X105102104Y-88005639D02*
X105030676Y-88005639D01*
X105030676Y-88005639D02*
X104935438Y-88029448D01*
X104935438Y-88029448D02*
X104887819Y-88053258D01*
X104887819Y-88053258D02*
X104840200Y-88100877D01*
X104840200Y-88100877D02*
X104816390Y-88172305D01*
X104816390Y-88172305D02*
X104816390Y-88291353D01*
X104816390Y-95315163D02*
X105316390Y-95315163D01*
X104816390Y-95077068D02*
X105316390Y-95077068D01*
X105316390Y-95077068D02*
X104816390Y-94791354D01*
X104816390Y-94791354D02*
X105316390Y-94791354D01*
X105316390Y-94600877D02*
X105316390Y-94291353D01*
X105316390Y-94291353D02*
X105125914Y-94458020D01*
X105125914Y-94458020D02*
X105125914Y-94386591D01*
X105125914Y-94386591D02*
X105102104Y-94338972D01*
X105102104Y-94338972D02*
X105078295Y-94315163D01*
X105078295Y-94315163D02*
X105030676Y-94291353D01*
X105030676Y-94291353D02*
X104911628Y-94291353D01*
X104911628Y-94291353D02*
X104864009Y-94315163D01*
X104864009Y-94315163D02*
X104840200Y-94338972D01*
X104840200Y-94338972D02*
X104816390Y-94386591D01*
X104816390Y-94386591D02*
X104816390Y-94529448D01*
X104816390Y-94529448D02*
X104840200Y-94577067D01*
X104840200Y-94577067D02*
X104864009Y-94600877D01*
X114627580Y-123553884D02*
X115627580Y-123553884D01*
X114627580Y-124030074D02*
X115627580Y-124030074D01*
X115627580Y-124030074D02*
X114627580Y-124601502D01*
X114627580Y-124601502D02*
X115627580Y-124601502D01*
X115294247Y-125506264D02*
X114627580Y-125506264D01*
X115675200Y-125268169D02*
X114960914Y-125030074D01*
X114960914Y-125030074D02*
X114960914Y-125649121D01*
D13*
X124205000Y-76080000D02*
X124205000Y-79920000D01*
X126045000Y-76080000D02*
X126045000Y-79920000D01*
X118477500Y-84912500D02*
X118477500Y-88972500D01*
X118477500Y-88972500D02*
X120747500Y-88972500D01*
X120747500Y-88972500D02*
X120747500Y-84912500D01*
X118352500Y-122912500D02*
X118352500Y-126972500D01*
X118352500Y-126972500D02*
X120622500Y-126972500D01*
X120622500Y-126972500D02*
X120622500Y-122912500D01*
X156240000Y-74330000D02*
X156240000Y-89570000D01*
X156240000Y-74330000D02*
X163860000Y-74330000D01*
X156240000Y-89570000D02*
X163860000Y-89570000D01*
X157510000Y-74330000D02*
X157510000Y-89570000D01*
X163860000Y-74330000D02*
X163860000Y-89570000D01*
X126062500Y-84440000D02*
X125412500Y-84440000D01*
X126062500Y-84440000D02*
X126712500Y-84440000D01*
X126062500Y-87560000D02*
X125412500Y-87560000D01*
X126062500Y-87560000D02*
X126712500Y-87560000D01*
X124900000Y-84490000D02*
X124660000Y-84160000D01*
X125140000Y-84160000D01*
X124900000Y-84490000D01*
G36*
X124900000Y-84490000D02*
G01*
X124660000Y-84160000D01*
X125140000Y-84160000D01*
X124900000Y-84490000D01*
G37*
X123890000Y-95080000D02*
X123890000Y-98920000D01*
X125730000Y-95080000D02*
X125730000Y-98920000D01*
X115395000Y-114340000D02*
X115395000Y-115990000D01*
X115395000Y-117990000D02*
X115395000Y-119640000D01*
X115395000Y-119640000D02*
X120595000Y-119640000D01*
X120595000Y-114340000D02*
X115395000Y-114340000D01*
X120595000Y-119640000D02*
X120595000Y-114340000D01*
X115395000Y-115990000D02*
G75*
G02*
X115395000Y-117990000I0J-1000000D01*
G01*
X156190000Y-58380000D02*
X156190000Y-73620000D01*
X156190000Y-58380000D02*
X163810000Y-58380000D01*
X156190000Y-73620000D02*
X163810000Y-73620000D01*
X157460000Y-58380000D02*
X157460000Y-73620000D01*
X163810000Y-58380000D02*
X163810000Y-73620000D01*
X134650000Y-93200000D02*
X134650000Y-99800000D01*
X134650000Y-93200000D02*
X154450000Y-93200000D01*
X134650000Y-102200000D02*
X134650000Y-108800000D01*
X138700000Y-101050000D02*
X137900000Y-101050000D01*
X138700000Y-101050000D02*
X138700000Y-104650000D01*
X139600000Y-107050000D02*
X142100000Y-107050000D01*
X140100000Y-99250000D02*
X144100000Y-99250000D01*
X140100000Y-102850000D02*
X140100000Y-99250000D01*
X142100000Y-95050000D02*
X139600000Y-95050000D01*
X142100000Y-95050000D02*
X142100000Y-99250000D01*
X142100000Y-102850000D02*
X142100000Y-107050000D01*
X144100000Y-99250000D02*
X144100000Y-102850000D01*
X144100000Y-102850000D02*
X140100000Y-99250000D01*
X144100000Y-102850000D02*
X140100000Y-102850000D01*
X145500000Y-101050000D02*
X145500000Y-104650000D01*
X145500000Y-101050000D02*
X147000000Y-101050000D01*
X145500000Y-104650000D02*
X138700000Y-104650000D01*
X147000000Y-101050000D02*
X151600000Y-98550000D01*
X150200000Y-96800000D02*
X150200000Y-99300000D01*
X150200000Y-105200000D02*
X150200000Y-102750000D01*
X154450000Y-93200000D02*
X154450000Y-108800000D01*
X154450000Y-108800000D02*
X134650000Y-108800000D01*
X156190000Y-109300000D02*
X156190000Y-124540000D01*
X156190000Y-109300000D02*
X163810000Y-109300000D01*
X156190000Y-124540000D02*
X163810000Y-124540000D01*
X157460000Y-109300000D02*
X157460000Y-124540000D01*
X163810000Y-109300000D02*
X163810000Y-124540000D01*
X156190000Y-93380000D02*
X156190000Y-108620000D01*
X156190000Y-93380000D02*
X163810000Y-93380000D01*
X156190000Y-108620000D02*
X163810000Y-108620000D01*
X157460000Y-93380000D02*
X157460000Y-108620000D01*
X163810000Y-93380000D02*
X163810000Y-108620000D01*
X126000000Y-122440000D02*
X125350000Y-122440000D01*
X126000000Y-122440000D02*
X126650000Y-122440000D01*
X126000000Y-125560000D02*
X125350000Y-125560000D01*
X126000000Y-125560000D02*
X126650000Y-125560000D01*
X124837500Y-122490000D02*
X124597500Y-122160000D01*
X125077500Y-122160000D01*
X124837500Y-122490000D01*
G36*
X124837500Y-122490000D02*
G01*
X124597500Y-122160000D01*
X125077500Y-122160000D01*
X124837500Y-122490000D01*
G37*
X128530000Y-80550000D02*
X128530000Y-85990000D01*
X128530000Y-85990000D02*
X131470000Y-85990000D01*
X130000000Y-79530000D02*
X130000000Y-80550000D01*
X130000000Y-87010000D02*
X130000000Y-85990000D01*
X131470000Y-80550000D02*
X128530000Y-80550000D01*
X131470000Y-81330000D02*
X128530000Y-81330000D01*
X131470000Y-81450000D02*
X128530000Y-81450000D01*
X131470000Y-81570000D02*
X128530000Y-81570000D01*
X131470000Y-85990000D02*
X131470000Y-80550000D01*
X128530000Y-118550000D02*
X128530000Y-123990000D01*
X128530000Y-123990000D02*
X131470000Y-123990000D01*
X130000000Y-117530000D02*
X130000000Y-118550000D01*
X130000000Y-125010000D02*
X130000000Y-123990000D01*
X131470000Y-118550000D02*
X128530000Y-118550000D01*
X131470000Y-119330000D02*
X128530000Y-119330000D01*
X131470000Y-119450000D02*
X128530000Y-119450000D01*
X131470000Y-119570000D02*
X128530000Y-119570000D01*
X131470000Y-123990000D02*
X131470000Y-118550000D01*
X124080000Y-114080000D02*
X124080000Y-117920000D01*
X125920000Y-114080000D02*
X125920000Y-117920000D01*
X112080000Y-61920000D02*
X112080000Y-58080000D01*
X113920000Y-61920000D02*
X113920000Y-58080000D01*
X118162500Y-103912500D02*
X118162500Y-107972500D01*
X118162500Y-107972500D02*
X120432500Y-107972500D01*
X120432500Y-107972500D02*
X120432500Y-103912500D01*
X124080000Y-57620000D02*
X124080000Y-61460000D01*
X125920000Y-57620000D02*
X125920000Y-61460000D01*
X111890000Y-96080000D02*
X111890000Y-99920000D01*
X113730000Y-96080000D02*
X113730000Y-99920000D01*
X134600000Y-55200000D02*
X134600000Y-61800000D01*
X134600000Y-55200000D02*
X154400000Y-55200000D01*
X134600000Y-64200000D02*
X134600000Y-70800000D01*
X138650000Y-63050000D02*
X137850000Y-63050000D01*
X138650000Y-63050000D02*
X138650000Y-66650000D01*
X139550000Y-69050000D02*
X142050000Y-69050000D01*
X140050000Y-61250000D02*
X144050000Y-61250000D01*
X140050000Y-64850000D02*
X140050000Y-61250000D01*
X142050000Y-57050000D02*
X139550000Y-57050000D01*
X142050000Y-57050000D02*
X142050000Y-61250000D01*
X142050000Y-64850000D02*
X142050000Y-69050000D01*
X144050000Y-61250000D02*
X144050000Y-64850000D01*
X144050000Y-64850000D02*
X140050000Y-61250000D01*
X144050000Y-64850000D02*
X140050000Y-64850000D01*
X145450000Y-63050000D02*
X145450000Y-66650000D01*
X145450000Y-63050000D02*
X146950000Y-63050000D01*
X145450000Y-66650000D02*
X138650000Y-66650000D01*
X146950000Y-63050000D02*
X151550000Y-60550000D01*
X150150000Y-58800000D02*
X150150000Y-61300000D01*
X150150000Y-67200000D02*
X150150000Y-64750000D01*
X154400000Y-55200000D02*
X154400000Y-70800000D01*
X154400000Y-70800000D02*
X134600000Y-70800000D01*
X115520000Y-76340000D02*
X115520000Y-77990000D01*
X115520000Y-79990000D02*
X115520000Y-81640000D01*
X115520000Y-81640000D02*
X120720000Y-81640000D01*
X120720000Y-76340000D02*
X115520000Y-76340000D01*
X120720000Y-81640000D02*
X120720000Y-76340000D01*
X115520000Y-77990000D02*
G75*
G02*
X115520000Y-79990000I0J-1000000D01*
G01*
X128530000Y-99550000D02*
X128530000Y-104990000D01*
X128530000Y-104990000D02*
X131470000Y-104990000D01*
X130000000Y-98530000D02*
X130000000Y-99550000D01*
X130000000Y-106010000D02*
X130000000Y-104990000D01*
X131470000Y-99550000D02*
X128530000Y-99550000D01*
X131470000Y-100330000D02*
X128530000Y-100330000D01*
X131470000Y-100450000D02*
X128530000Y-100450000D01*
X131470000Y-100570000D02*
X128530000Y-100570000D01*
X131470000Y-104990000D02*
X131470000Y-99550000D01*
X134650000Y-74150000D02*
X134650000Y-80750000D01*
X134650000Y-74150000D02*
X154450000Y-74150000D01*
X134650000Y-83150000D02*
X134650000Y-89750000D01*
X138700000Y-82000000D02*
X137900000Y-82000000D01*
X138700000Y-82000000D02*
X138700000Y-85600000D01*
X139600000Y-88000000D02*
X142100000Y-88000000D01*
X140100000Y-80200000D02*
X144100000Y-80200000D01*
X140100000Y-83800000D02*
X140100000Y-80200000D01*
X142100000Y-76000000D02*
X139600000Y-76000000D01*
X142100000Y-76000000D02*
X142100000Y-80200000D01*
X142100000Y-83800000D02*
X142100000Y-88000000D01*
X144100000Y-80200000D02*
X144100000Y-83800000D01*
X144100000Y-83800000D02*
X140100000Y-80200000D01*
X144100000Y-83800000D02*
X140100000Y-83800000D01*
X145500000Y-82000000D02*
X145500000Y-85600000D01*
X145500000Y-82000000D02*
X147000000Y-82000000D01*
X145500000Y-85600000D02*
X138700000Y-85600000D01*
X147000000Y-82000000D02*
X151600000Y-79500000D01*
X150200000Y-77750000D02*
X150200000Y-80250000D01*
X150200000Y-86150000D02*
X150200000Y-83700000D01*
X154450000Y-74150000D02*
X154450000Y-89750000D01*
X154450000Y-89750000D02*
X134650000Y-89750000D01*
X118377500Y-66400000D02*
X118377500Y-70460000D01*
X118377500Y-70460000D02*
X120647500Y-70460000D01*
X120647500Y-70460000D02*
X120647500Y-66400000D01*
X112080000Y-115080000D02*
X112080000Y-118920000D01*
X113920000Y-115080000D02*
X113920000Y-118920000D01*
X128530000Y-61550000D02*
X128530000Y-66990000D01*
X128530000Y-66990000D02*
X131470000Y-66990000D01*
X130000000Y-60530000D02*
X130000000Y-61550000D01*
X130000000Y-68010000D02*
X130000000Y-66990000D01*
X131470000Y-61550000D02*
X128530000Y-61550000D01*
X131470000Y-62330000D02*
X128530000Y-62330000D01*
X131470000Y-62450000D02*
X128530000Y-62450000D01*
X131470000Y-62570000D02*
X128530000Y-62570000D01*
X131470000Y-66990000D02*
X131470000Y-61550000D01*
X125937500Y-65390000D02*
X125287500Y-65390000D01*
X125937500Y-65390000D02*
X126587500Y-65390000D01*
X125937500Y-68510000D02*
X125287500Y-68510000D01*
X125937500Y-68510000D02*
X126587500Y-68510000D01*
X124775000Y-65440000D02*
X124535000Y-65110000D01*
X125015000Y-65110000D01*
X124775000Y-65440000D01*
G36*
X124775000Y-65440000D02*
G01*
X124535000Y-65110000D01*
X125015000Y-65110000D01*
X124775000Y-65440000D01*
G37*
X112205000Y-80920000D02*
X112205000Y-77080000D01*
X114045000Y-80920000D02*
X114045000Y-77080000D01*
X115395000Y-57340000D02*
X115395000Y-58990000D01*
X115395000Y-60990000D02*
X115395000Y-62640000D01*
X115395000Y-62640000D02*
X120595000Y-62640000D01*
X120595000Y-57340000D02*
X115395000Y-57340000D01*
X120595000Y-62640000D02*
X120595000Y-57340000D01*
X115395000Y-58990000D02*
G75*
G02*
X115395000Y-60990000I0J-1000000D01*
G01*
X134400000Y-112200000D02*
X134400000Y-118800000D01*
X134400000Y-112200000D02*
X154200000Y-112200000D01*
X134400000Y-121200000D02*
X134400000Y-127800000D01*
X138450000Y-120050000D02*
X137650000Y-120050000D01*
X138450000Y-120050000D02*
X138450000Y-123650000D01*
X139350000Y-126050000D02*
X141850000Y-126050000D01*
X139850000Y-118250000D02*
X143850000Y-118250000D01*
X139850000Y-121850000D02*
X139850000Y-118250000D01*
X141850000Y-114050000D02*
X139350000Y-114050000D01*
X141850000Y-114050000D02*
X141850000Y-118250000D01*
X141850000Y-121850000D02*
X141850000Y-126050000D01*
X143850000Y-118250000D02*
X143850000Y-121850000D01*
X143850000Y-121850000D02*
X139850000Y-118250000D01*
X143850000Y-121850000D02*
X139850000Y-121850000D01*
X145250000Y-120050000D02*
X145250000Y-123650000D01*
X145250000Y-120050000D02*
X146750000Y-120050000D01*
X145250000Y-123650000D02*
X138450000Y-123650000D01*
X146750000Y-120050000D02*
X151350000Y-117550000D01*
X149950000Y-115800000D02*
X149950000Y-118300000D01*
X149950000Y-124200000D02*
X149950000Y-121750000D01*
X154200000Y-112200000D02*
X154200000Y-127800000D01*
X154200000Y-127800000D02*
X134400000Y-127800000D01*
X115205000Y-95340000D02*
X115205000Y-96990000D01*
X115205000Y-98990000D02*
X115205000Y-100640000D01*
X115205000Y-100640000D02*
X120405000Y-100640000D01*
X120405000Y-95340000D02*
X115205000Y-95340000D01*
X120405000Y-100640000D02*
X120405000Y-95340000D01*
X115205000Y-96990000D02*
G75*
G02*
X115205000Y-98990000I0J-1000000D01*
G01*
X105690000Y-85440000D02*
X106750000Y-85440000D01*
X105690000Y-86500000D02*
X105690000Y-85440000D01*
X105690000Y-87500000D02*
X105690000Y-97560000D01*
X105690000Y-87500000D02*
X107810000Y-87500000D01*
X105690000Y-97560000D02*
X107810000Y-97560000D01*
X107810000Y-87500000D02*
X107810000Y-97560000D01*
X125810000Y-103440000D02*
X125160000Y-103440000D01*
X125810000Y-103440000D02*
X126460000Y-103440000D01*
X125810000Y-106560000D02*
X125160000Y-106560000D01*
X125810000Y-106560000D02*
X126460000Y-106560000D01*
X124647500Y-103490000D02*
X124407500Y-103160000D01*
X124887500Y-103160000D01*
X124647500Y-103490000D01*
G36*
X124647500Y-103490000D02*
G01*
X124407500Y-103160000D01*
X124887500Y-103160000D01*
X124647500Y-103490000D01*
G37*
%LPC*%
D14*
X125125000Y-75460000D03*
D15*
X125125000Y-80540000D03*
D16*
X119612500Y-88000000D03*
X119612500Y-85025000D03*
X119487500Y-126000000D03*
X119487500Y-123025000D03*
D17*
X160050000Y-76870000D03*
D18*
X160050000Y-81950000D03*
X160050000Y-87030000D03*
D19*
X125125000Y-85050000D03*
X125125000Y-86950000D03*
X127000000Y-86000000D03*
D14*
X124810000Y-94460000D03*
D15*
X124810000Y-99540000D03*
D20*
X116725000Y-120800000D03*
D21*
X119265000Y-120800000D03*
X119265000Y-113180000D03*
X116725000Y-113180000D03*
D17*
X160000000Y-60920000D03*
D18*
X160000000Y-66000000D03*
X160000000Y-71080000D03*
X136050000Y-101000000D03*
D22*
X138000000Y-107050000D03*
D18*
X150200000Y-107050000D03*
X150250000Y-95000000D03*
D22*
X138000000Y-95050000D03*
D17*
X160000000Y-111840000D03*
D18*
X160000000Y-116920000D03*
X160000000Y-122000000D03*
D17*
X160000000Y-95920000D03*
D18*
X160000000Y-101000000D03*
X160000000Y-106080000D03*
D19*
X125062500Y-123050000D03*
X125062500Y-124950000D03*
X126937500Y-124000000D03*
D23*
X130000000Y-78190000D03*
D24*
X130000000Y-88350000D03*
D23*
X130000000Y-116190000D03*
D24*
X130000000Y-126350000D03*
D14*
X125000000Y-113460000D03*
D15*
X125000000Y-118540000D03*
D14*
X113000000Y-62540000D03*
D15*
X113000000Y-57460000D03*
D16*
X119297500Y-107000000D03*
X119297500Y-104025000D03*
D14*
X125000000Y-57000000D03*
D15*
X125000000Y-62080000D03*
D14*
X112810000Y-95460000D03*
D15*
X112810000Y-100540000D03*
D18*
X136000000Y-63000000D03*
D22*
X137950000Y-69050000D03*
D18*
X150150000Y-69050000D03*
X150200000Y-57000000D03*
D22*
X137950000Y-57050000D03*
D20*
X116850000Y-82800000D03*
D21*
X119390000Y-82800000D03*
X119390000Y-75180000D03*
X116850000Y-75180000D03*
D23*
X130000000Y-97190000D03*
D24*
X130000000Y-107350000D03*
D18*
X136050000Y-81950000D03*
D22*
X138000000Y-88000000D03*
D18*
X150200000Y-88000000D03*
X150250000Y-75950000D03*
D22*
X138000000Y-76000000D03*
D16*
X119512500Y-69487500D03*
X119512500Y-66512500D03*
D14*
X113000000Y-114460000D03*
D15*
X113000000Y-119540000D03*
D23*
X130000000Y-59190000D03*
D24*
X130000000Y-69350000D03*
D19*
X125000000Y-66000000D03*
X125000000Y-67900000D03*
X126875000Y-66950000D03*
D14*
X113125000Y-81540000D03*
D15*
X113125000Y-76460000D03*
D20*
X116725000Y-63800000D03*
D21*
X119265000Y-63800000D03*
X119265000Y-56180000D03*
X116725000Y-56180000D03*
D18*
X135800000Y-120000000D03*
D22*
X137750000Y-126050000D03*
D18*
X149950000Y-126050000D03*
X150000000Y-114000000D03*
D22*
X137750000Y-114050000D03*
D20*
X116535000Y-101800000D03*
D21*
X119075000Y-101800000D03*
X119075000Y-94180000D03*
X116535000Y-94180000D03*
D25*
X106750000Y-86500000D03*
D26*
X106750000Y-88500000D03*
X106750000Y-90500000D03*
X106750000Y-92500000D03*
X106750000Y-94500000D03*
X106750000Y-96500000D03*
D19*
X124872500Y-104050000D03*
X124872500Y-105950000D03*
X126747500Y-105000000D03*
%LPD*%
M02*
