G04 #@! TF.GenerationSoftware,KiCad,Pcbnew,8.0.6*
G04 #@! TF.CreationDate,2025-05-08T21:35:25+02:00*
G04 #@! TF.ProjectId,Relay_board,52656c61-795f-4626-9f61-72642e6b6963,rev?*
G04 #@! TF.SameCoordinates,Original*
G04 #@! TF.FileFunction,Copper,L1,Top*
G04 #@! TF.FilePolarity,Positive*
%FSLAX46Y46*%
G04 Gerber Fmt 4.6, Leading zero omitted, Abs format (unit mm)*
G04 Created by KiCad (PCBNEW 8.0.6) date 2025-05-08 21:35:25*
%MOMM*%
%LPD*%
G01*
G04 APERTURE LIST*
G04 Aperture macros list*
%AMRoundRect*
0 Rectangle with rounded corners*
0 $1 Rounding radius*
0 $2 $3 $4 $5 $6 $7 $8 $9 X,Y pos of 4 corners*
0 Add a 4 corners polygon primitive as box body*
4,1,4,$2,$3,$4,$5,$6,$7,$8,$9,$2,$3,0*
0 Add four circle primitives for the rounded corners*
1,1,$1+$1,$2,$3*
1,1,$1+$1,$4,$5*
1,1,$1+$1,$6,$7*
1,1,$1+$1,$8,$9*
0 Add four rect primitives between the rounded corners*
20,1,$1+$1,$2,$3,$4,$5,0*
20,1,$1+$1,$4,$5,$6,$7,0*
20,1,$1+$1,$6,$7,$8,$9,0*
20,1,$1+$1,$8,$9,$2,$3,0*%
G04 Aperture macros list end*
G04 #@! TA.AperFunction,ComponentPad*
%ADD10C,1.400000*%
G04 #@! TD*
G04 #@! TA.AperFunction,ComponentPad*
%ADD11O,1.400000X1.400000*%
G04 #@! TD*
G04 #@! TA.AperFunction,SMDPad,CuDef*
%ADD12RoundRect,0.250001X0.624999X-0.462499X0.624999X0.462499X-0.624999X0.462499X-0.624999X-0.462499X0*%
G04 #@! TD*
G04 #@! TA.AperFunction,ComponentPad*
%ADD13R,3.000000X3.000000*%
G04 #@! TD*
G04 #@! TA.AperFunction,ComponentPad*
%ADD14C,3.000000*%
G04 #@! TD*
G04 #@! TA.AperFunction,SMDPad,CuDef*
%ADD15RoundRect,0.150000X-0.587500X-0.150000X0.587500X-0.150000X0.587500X0.150000X-0.587500X0.150000X0*%
G04 #@! TD*
G04 #@! TA.AperFunction,ComponentPad*
%ADD16R,1.600000X1.600000*%
G04 #@! TD*
G04 #@! TA.AperFunction,ComponentPad*
%ADD17O,1.600000X1.600000*%
G04 #@! TD*
G04 #@! TA.AperFunction,ComponentPad*
%ADD18C,2.500000*%
G04 #@! TD*
G04 #@! TA.AperFunction,ComponentPad*
%ADD19R,2.200000X2.200000*%
G04 #@! TD*
G04 #@! TA.AperFunction,ComponentPad*
%ADD20O,2.200000X2.200000*%
G04 #@! TD*
G04 #@! TA.AperFunction,ComponentPad*
%ADD21R,1.350000X1.350000*%
G04 #@! TD*
G04 #@! TA.AperFunction,ComponentPad*
%ADD22O,1.350000X1.350000*%
G04 #@! TD*
G04 #@! TA.AperFunction,Conductor*
%ADD23C,1.000000*%
G04 #@! TD*
G04 APERTURE END LIST*
D10*
X125125000Y-75460000D03*
D11*
X125125000Y-80540000D03*
D12*
X119612500Y-88000000D03*
X119612500Y-85025000D03*
X119487500Y-126000000D03*
X119487500Y-123025000D03*
D13*
X160050000Y-76870000D03*
D14*
X160050000Y-81950000D03*
X160050000Y-87030000D03*
D15*
X125125000Y-85050000D03*
X125125000Y-86950000D03*
X127000000Y-86000000D03*
D10*
X124810000Y-94460000D03*
D11*
X124810000Y-99540000D03*
D16*
X116725000Y-120800000D03*
D17*
X119265000Y-120800000D03*
X119265000Y-113180000D03*
X116725000Y-113180000D03*
D13*
X160000000Y-60920000D03*
D14*
X160000000Y-66000000D03*
X160000000Y-71080000D03*
X136050000Y-101000000D03*
D18*
X138000000Y-107050000D03*
D14*
X150200000Y-107050000D03*
X150250000Y-95000000D03*
D18*
X138000000Y-95050000D03*
D13*
X160000000Y-111840000D03*
D14*
X160000000Y-116920000D03*
X160000000Y-122000000D03*
D13*
X160000000Y-95920000D03*
D14*
X160000000Y-101000000D03*
X160000000Y-106080000D03*
D15*
X125062500Y-123050000D03*
X125062500Y-124950000D03*
X126937500Y-124000000D03*
D19*
X130000000Y-78190000D03*
D20*
X130000000Y-88350000D03*
D19*
X130000000Y-116190000D03*
D20*
X130000000Y-126350000D03*
D10*
X125000000Y-113460000D03*
D11*
X125000000Y-118540000D03*
D10*
X113000000Y-62540000D03*
D11*
X113000000Y-57460000D03*
D12*
X119297500Y-107000000D03*
X119297500Y-104025000D03*
D10*
X125000000Y-57000000D03*
D11*
X125000000Y-62080000D03*
D10*
X112810000Y-95460000D03*
D11*
X112810000Y-100540000D03*
D14*
X136000000Y-63000000D03*
D18*
X137950000Y-69050000D03*
D14*
X150150000Y-69050000D03*
X150200000Y-57000000D03*
D18*
X137950000Y-57050000D03*
D16*
X116850000Y-82800000D03*
D17*
X119390000Y-82800000D03*
X119390000Y-75180000D03*
X116850000Y-75180000D03*
D19*
X130000000Y-97190000D03*
D20*
X130000000Y-107350000D03*
D14*
X136050000Y-81950000D03*
D18*
X138000000Y-88000000D03*
D14*
X150200000Y-88000000D03*
X150250000Y-75950000D03*
D18*
X138000000Y-76000000D03*
D12*
X119512500Y-69487500D03*
X119512500Y-66512500D03*
D10*
X113000000Y-114460000D03*
D11*
X113000000Y-119540000D03*
D19*
X130000000Y-59190000D03*
D20*
X130000000Y-69350000D03*
D15*
X125000000Y-66000000D03*
X125000000Y-67900000D03*
X126875000Y-66950000D03*
D10*
X113125000Y-81540000D03*
D11*
X113125000Y-76460000D03*
D16*
X116725000Y-63800000D03*
D17*
X119265000Y-63800000D03*
X119265000Y-56180000D03*
X116725000Y-56180000D03*
D14*
X135800000Y-120000000D03*
D18*
X137750000Y-126050000D03*
D14*
X149950000Y-126050000D03*
X150000000Y-114000000D03*
D18*
X137750000Y-114050000D03*
D16*
X116535000Y-101800000D03*
D17*
X119075000Y-101800000D03*
X119075000Y-94180000D03*
X116535000Y-94180000D03*
D21*
X106750000Y-86500000D03*
D22*
X106750000Y-88500000D03*
X106750000Y-90500000D03*
X106750000Y-92500000D03*
X106750000Y-94500000D03*
X106750000Y-96500000D03*
D15*
X124872500Y-104050000D03*
X124872500Y-105950000D03*
X126747500Y-105000000D03*
D23*
X126875000Y-66950000D02*
X127600000Y-66950000D01*
X127600000Y-66950000D02*
X130000000Y-69350000D01*
X119512500Y-64047500D02*
X119265000Y-63800000D01*
X119512500Y-66512500D02*
X119512500Y-64047500D01*
X124075000Y-88000000D02*
X125125000Y-86950000D01*
X116000000Y-88000000D02*
X114500000Y-86500000D01*
X124012500Y-126000000D02*
X125062500Y-124950000D01*
X123000000Y-88000000D02*
X123000000Y-107000000D01*
X123822500Y-107000000D02*
X124872500Y-105950000D01*
X123412500Y-69487500D02*
X125000000Y-67900000D01*
X123000000Y-126000000D02*
X124012500Y-126000000D01*
X123000000Y-69487500D02*
X123412500Y-69487500D01*
X123000000Y-88000000D02*
X123000000Y-69487500D01*
X123000000Y-107000000D02*
X123822500Y-107000000D01*
X119512500Y-69487500D02*
X123000000Y-69487500D01*
X114500000Y-86500000D02*
X106750000Y-86500000D01*
X119487500Y-126000000D02*
X123000000Y-126000000D01*
X119297500Y-107000000D02*
X123000000Y-107000000D01*
X123000000Y-88000000D02*
X124075000Y-88000000D01*
X119612500Y-88000000D02*
X116000000Y-88000000D01*
X123000000Y-107000000D02*
X123000000Y-126000000D01*
X119612500Y-88000000D02*
X123000000Y-88000000D01*
X119612500Y-85025000D02*
X119612500Y-83022500D01*
X119612500Y-83022500D02*
X119390000Y-82800000D01*
X127650000Y-86000000D02*
X130000000Y-88350000D01*
X127000000Y-86000000D02*
X127650000Y-86000000D01*
X119297500Y-102022500D02*
X119075000Y-101800000D01*
X119297500Y-104025000D02*
X119297500Y-102022500D01*
X126747500Y-105000000D02*
X127650000Y-105000000D01*
X127650000Y-105000000D02*
X130000000Y-107350000D01*
X119487500Y-123025000D02*
X119487500Y-121022500D01*
X119487500Y-121022500D02*
X119265000Y-120800000D01*
X126937500Y-124000000D02*
X127650000Y-124000000D01*
X127650000Y-124000000D02*
X130000000Y-126350000D01*
X125125000Y-85050000D02*
X125125000Y-80540000D01*
X125000000Y-66000000D02*
X125000000Y-62080000D01*
X124872500Y-104050000D02*
X124872500Y-99602500D01*
X124872500Y-99602500D02*
X124810000Y-99540000D01*
X125062500Y-123050000D02*
X125062500Y-118602500D01*
X125062500Y-118602500D02*
X125000000Y-118540000D01*
M02*
