M48
; DRILL file {KiCad 8.0.6} date 2025-05-08T21:35:28+0200
; FORMAT={-:-/ absolute / metric / decimal}
; #@! TF.CreationDate,2025-05-08T21:35:28+02:00
; #@! TF.GenerationSoftware,Kicad,Pcbnew,8.0.6
; #@! TF.FileFunction,Plated,1,2,PTH
FMAT,2
METRIC
; #@! TA.AperFunction,Plated,PTH,ComponentDrill
T1C0.700
; #@! TA.AperFunction,Plated,PTH,ComponentDrill
T2C0.800
; #@! TA.AperFunction,Plated,PTH,ComponentDrill
T3C1.000
; #@! TA.AperFunction,Plated,PTH,ComponentDrill
T4C1.100
; #@! TA.AperFunction,Plated,PTH,ComponentDrill
T5C1.300
; #@! TA.AperFunction,Plated,PTH,ComponentDrill
T6C1.520
%
G90
G05
T1
X112.81Y-95.46
X112.81Y-100.54
X113.0Y-57.46
X113.0Y-62.54
X113.0Y-114.46
X113.0Y-119.54
X113.125Y-76.46
X113.125Y-81.54
X124.81Y-94.46
X124.81Y-99.54
X125.0Y-57.0
X125.0Y-62.08
X125.0Y-113.46
X125.0Y-118.54
X125.125Y-75.46
X125.125Y-80.54
T2
X106.75Y-86.5
X106.75Y-88.5
X106.75Y-90.5
X106.75Y-92.5
X106.75Y-94.5
X106.75Y-96.5
X116.535Y-94.18
X116.535Y-101.8
X116.725Y-56.18
X116.725Y-63.8
X116.725Y-113.18
X116.725Y-120.8
X116.85Y-75.18
X116.85Y-82.8
X119.075Y-94.18
X119.075Y-101.8
X119.265Y-56.18
X119.265Y-63.8
X119.265Y-113.18
X119.265Y-120.8
X119.39Y-75.18
X119.39Y-82.8
T3
X137.75Y-114.05
X137.75Y-126.05
X137.95Y-57.05
X137.95Y-69.05
X138.0Y-76.0
X138.0Y-88.0
X138.0Y-95.05
X138.0Y-107.05
T4
X130.0Y-59.19
X130.0Y-69.35
X130.0Y-78.19
X130.0Y-88.35
X130.0Y-97.19
X130.0Y-107.35
X130.0Y-116.19
X130.0Y-126.35
T5
X135.8Y-120.0
X136.0Y-63.0
X136.05Y-81.95
X136.05Y-101.0
X149.95Y-126.05
X150.0Y-114.0
X150.15Y-69.05
X150.2Y-57.0
X150.2Y-88.0
X150.2Y-107.05
X150.25Y-75.95
X150.25Y-95.0
T6
X160.0Y-60.92
X160.0Y-66.0
X160.0Y-71.08
X160.0Y-95.92
X160.0Y-101.0
X160.0Y-106.08
X160.0Y-111.84
X160.0Y-116.92
X160.0Y-122.0
X160.05Y-76.87
X160.05Y-81.95
X160.05Y-87.03
M30
