G04 #@! TF.GenerationSoftware,KiCad,Pcbnew,8.0.6*
G04 #@! TF.CreationDate,2025-05-08T21:35:26+02:00*
G04 #@! TF.ProjectId,Relay_board,52656c61-795f-4626-9f61-72642e6b6963,rev?*
G04 #@! TF.SameCoordinates,Original*
G04 #@! TF.FileFunction,Profile,NP*
%FSLAX46Y46*%
G04 Gerber Fmt 4.6, Leading zero omitted, Abs format (unit mm)*
G04 Created by KiCad (PCBNEW 8.0.6) date 2025-05-08 21:35:26*
%MOMM*%
%LPD*%
G01*
G04 APERTURE LIST*
G04 #@! TA.AperFunction,Profile*
%ADD10C,0.050000*%
G04 #@! TD*
G04 APERTURE END LIST*
D10*
X162500000Y-79000000D02*
X162500000Y-80000000D01*
X107500000Y-56250000D02*
G75*
G02*
X104500000Y-56250000I-1500000J0D01*
G01*
X104500000Y-56250000D02*
G75*
G02*
X107500000Y-56250000I1500000J0D01*
G01*
X148000000Y-58000000D02*
X151500000Y-61000000D01*
X136000000Y-116000000D02*
X140000000Y-116000000D01*
X148750000Y-117500000D02*
X153250000Y-113500000D01*
X136000000Y-67000000D02*
G75*
G02*
X136000000Y-59000000I0J4000000D01*
G01*
X153250000Y-107500000D02*
X153250000Y-108500000D01*
X157000000Y-73500000D02*
X157000000Y-74500000D01*
X157000000Y-115000000D02*
X157000000Y-114000000D01*
X162000000Y-103000000D02*
X162000000Y-104000000D01*
X153250000Y-108500000D02*
X148750000Y-112500000D01*
X148750000Y-118500000D02*
X148750000Y-117500000D01*
X157000000Y-79000000D02*
X157000000Y-80000000D01*
X156500000Y-103000000D02*
X162000000Y-103000000D01*
X162000000Y-99000000D02*
X156500000Y-99000000D01*
X166000000Y-126500000D02*
G75*
G02*
X163000000Y-126500000I-1500000J0D01*
G01*
X163000000Y-126500000D02*
G75*
G02*
X166000000Y-126500000I1500000J0D01*
G01*
X157000000Y-120000000D02*
X157000000Y-119000000D01*
X140000000Y-98000000D02*
X136000000Y-98000000D01*
X136000000Y-59000000D02*
X140000000Y-59000000D01*
X140000000Y-86000000D02*
X136000000Y-86000000D01*
X104000000Y-54250000D02*
X167000000Y-54250000D01*
X167000000Y-128750000D01*
X104000000Y-128750000D01*
X104000000Y-54250000D01*
X162500000Y-108000000D02*
X162500000Y-109000000D01*
X162500000Y-85000000D02*
X157000000Y-85000000D01*
X136000000Y-85000000D02*
X140000000Y-85000000D01*
X136000000Y-105000000D02*
G75*
G02*
X136000000Y-97000000I0J4000000D01*
G01*
X162500000Y-74500000D02*
X157000000Y-74500000D01*
X136000000Y-123000000D02*
X140000000Y-123000000D01*
X149000000Y-71000000D02*
X152500000Y-74000000D01*
X153250000Y-114500000D02*
X148750000Y-118500000D01*
X136000000Y-97000000D02*
X140000000Y-97000000D01*
X162500000Y-80000000D02*
X157000000Y-80000000D01*
X140000000Y-85000000D02*
X140000000Y-86000000D01*
X152500000Y-74000000D02*
X152500000Y-75000000D01*
X152500000Y-75000000D02*
X149000000Y-72000000D01*
X136000000Y-78000000D02*
X140000000Y-78000000D01*
X140000000Y-104000000D02*
X140000000Y-105000000D01*
X166500000Y-56250000D02*
G75*
G02*
X163500000Y-56250000I-1500000J0D01*
G01*
X163500000Y-56250000D02*
G75*
G02*
X166500000Y-56250000I1500000J0D01*
G01*
X136000000Y-85000000D02*
G75*
G02*
X136000000Y-79000000I0J3000000D01*
G01*
X153000000Y-68000000D02*
X153000000Y-69000000D01*
X153250000Y-119500000D02*
X153250000Y-120500000D01*
X149500000Y-65000000D02*
X149500000Y-66000000D01*
X156500000Y-98000000D02*
X162000000Y-98000000D01*
X148000000Y-58000000D02*
X148000000Y-59000000D01*
X162500000Y-84000000D02*
X162500000Y-85000000D01*
X162500000Y-119000000D02*
X162500000Y-120000000D01*
X156500000Y-103000000D02*
X156500000Y-104000000D01*
X140000000Y-117000000D02*
X136000000Y-117000000D01*
X162500000Y-73500000D02*
X162500000Y-74500000D01*
X153250000Y-113500000D02*
X153250000Y-114500000D01*
X136000000Y-66000000D02*
X140000000Y-66000000D01*
X157000000Y-68000000D02*
X162500000Y-68000000D01*
X162500000Y-114000000D02*
X162500000Y-115000000D01*
X162500000Y-109000000D02*
X157000000Y-109000000D01*
X157000000Y-84000000D02*
X162500000Y-84000000D01*
X157000000Y-68000000D02*
X157000000Y-69000000D01*
X148750000Y-123500000D02*
X153250000Y-119500000D01*
X140000000Y-124000000D02*
X136000000Y-124000000D01*
X162500000Y-69000000D02*
X157000000Y-69000000D01*
X140000000Y-79000000D02*
X136000000Y-79000000D01*
X157000000Y-108000000D02*
X162500000Y-108000000D01*
X162500000Y-68000000D02*
X162500000Y-69000000D01*
X140000000Y-60000000D02*
X136000000Y-60000000D01*
X157000000Y-63000000D02*
X157000000Y-64000000D01*
X157000000Y-84000000D02*
X157000000Y-85000000D01*
X140000000Y-123000000D02*
X140000000Y-124000000D01*
X108000000Y-126500000D02*
G75*
G02*
X105000000Y-126500000I-1500000J0D01*
G01*
X105000000Y-126500000D02*
G75*
G02*
X108000000Y-126500000I1500000J0D01*
G01*
X140000000Y-78000000D02*
X140000000Y-79000000D01*
X148750000Y-111500000D02*
X153250000Y-107500000D01*
X149000000Y-71000000D02*
X149000000Y-72000000D01*
X136000000Y-104000000D02*
G75*
G02*
X136000000Y-98000000I0J3000000D01*
G01*
X149500000Y-65000000D02*
X153000000Y-68000000D01*
X157000000Y-108000000D02*
X157000000Y-109000000D01*
X162500000Y-63000000D02*
X162500000Y-64000000D01*
X157000000Y-114000000D02*
X162500000Y-114000000D01*
X136000000Y-123000000D02*
G75*
G02*
X136000000Y-117000000I0J3000000D01*
G01*
X136000000Y-124000000D02*
G75*
G02*
X136000000Y-116000000I0J4000000D01*
G01*
X162500000Y-64000000D02*
X157000000Y-64000000D01*
X140000000Y-105000000D02*
X136000000Y-105000000D01*
X148750000Y-112500000D02*
X148750000Y-111500000D01*
X162500000Y-120000000D02*
X157000000Y-120000000D01*
X162500000Y-115000000D02*
X157000000Y-115000000D01*
X153000000Y-69000000D02*
X149500000Y-66000000D01*
X157000000Y-73500000D02*
X162500000Y-73500000D01*
X162000000Y-104000000D02*
X156500000Y-104000000D01*
X140000000Y-59000000D02*
X140000000Y-60000000D01*
X140000000Y-66000000D02*
X140000000Y-67000000D01*
X151500000Y-61000000D02*
X151500000Y-62000000D01*
X157000000Y-119000000D02*
X162500000Y-119000000D01*
X153250000Y-120500000D02*
X148750000Y-124500000D01*
X157000000Y-79000000D02*
X162500000Y-79000000D01*
X136000000Y-86000000D02*
G75*
G02*
X136000000Y-78000000I0J4000000D01*
G01*
X148750000Y-124500000D02*
X148750000Y-123500000D01*
X162000000Y-98000000D02*
X162000000Y-99000000D01*
X136000000Y-104000000D02*
X140000000Y-104000000D01*
X140000000Y-67000000D02*
X136000000Y-67000000D01*
X156500000Y-98000000D02*
X156500000Y-99000000D01*
X136000000Y-66000000D02*
G75*
G02*
X136000000Y-60000000I0J3000000D01*
G01*
X140000000Y-116000000D02*
X140000000Y-117000000D01*
X151500000Y-62000000D02*
X148000000Y-59000000D01*
X157000000Y-63000000D02*
X162500000Y-63000000D01*
X140000000Y-97000000D02*
X140000000Y-98000000D01*
M02*
