G04 #@! TF.GenerationSoftware,KiCad,Pcbnew,8.0.6*
G04 #@! TF.CreationDate,2025-05-08T21:35:26+02:00*
G04 #@! TF.ProjectId,Relay_board,52656c61-795f-4626-9f61-72642e6b6963,rev?*
G04 #@! TF.SameCoordinates,Original*
G04 #@! TF.FileFunction,Legend,Bot*
G04 #@! TF.FilePolarity,Positive*
%FSLAX46Y46*%
G04 Gerber Fmt 4.6, Leading zero omitted, Abs format (unit mm)*
G04 Created by KiCad (PCBNEW 8.0.6) date 2025-05-08 21:35:26*
%MOMM*%
%LPD*%
G01*
G04 APERTURE LIST*
%ADD10C,1.400000*%
%ADD11O,1.400000X1.400000*%
%ADD12R,3.000000X3.000000*%
%ADD13C,3.000000*%
%ADD14R,1.600000X1.600000*%
%ADD15O,1.600000X1.600000*%
%ADD16C,2.500000*%
%ADD17R,2.200000X2.200000*%
%ADD18O,2.200000X2.200000*%
%ADD19R,1.350000X1.350000*%
%ADD20O,1.350000X1.350000*%
G04 APERTURE END LIST*
%LPC*%
D10*
X125125000Y-75460000D03*
D11*
X125125000Y-80540000D03*
D12*
X160050000Y-76870000D03*
D13*
X160050000Y-81950000D03*
X160050000Y-87030000D03*
D10*
X124810000Y-94460000D03*
D11*
X124810000Y-99540000D03*
D14*
X116725000Y-120800000D03*
D15*
X119265000Y-120800000D03*
X119265000Y-113180000D03*
X116725000Y-113180000D03*
D12*
X160000000Y-60920000D03*
D13*
X160000000Y-66000000D03*
X160000000Y-71080000D03*
X136050000Y-101000000D03*
D16*
X138000000Y-107050000D03*
D13*
X150200000Y-107050000D03*
X150250000Y-95000000D03*
D16*
X138000000Y-95050000D03*
D12*
X160000000Y-111840000D03*
D13*
X160000000Y-116920000D03*
X160000000Y-122000000D03*
D12*
X160000000Y-95920000D03*
D13*
X160000000Y-101000000D03*
X160000000Y-106080000D03*
D17*
X130000000Y-78190000D03*
D18*
X130000000Y-88350000D03*
D17*
X130000000Y-116190000D03*
D18*
X130000000Y-126350000D03*
D10*
X125000000Y-113460000D03*
D11*
X125000000Y-118540000D03*
D10*
X113000000Y-62540000D03*
D11*
X113000000Y-57460000D03*
D10*
X125000000Y-57000000D03*
D11*
X125000000Y-62080000D03*
D10*
X112810000Y-95460000D03*
D11*
X112810000Y-100540000D03*
D13*
X136000000Y-63000000D03*
D16*
X137950000Y-69050000D03*
D13*
X150150000Y-69050000D03*
X150200000Y-57000000D03*
D16*
X137950000Y-57050000D03*
D14*
X116850000Y-82800000D03*
D15*
X119390000Y-82800000D03*
X119390000Y-75180000D03*
X116850000Y-75180000D03*
D17*
X130000000Y-97190000D03*
D18*
X130000000Y-107350000D03*
D13*
X136050000Y-81950000D03*
D16*
X138000000Y-88000000D03*
D13*
X150200000Y-88000000D03*
X150250000Y-75950000D03*
D16*
X138000000Y-76000000D03*
D10*
X113000000Y-114460000D03*
D11*
X113000000Y-119540000D03*
D17*
X130000000Y-59190000D03*
D18*
X130000000Y-69350000D03*
D10*
X113125000Y-81540000D03*
D11*
X113125000Y-76460000D03*
D14*
X116725000Y-63800000D03*
D15*
X119265000Y-63800000D03*
X119265000Y-56180000D03*
X116725000Y-56180000D03*
D13*
X135800000Y-120000000D03*
D16*
X137750000Y-126050000D03*
D13*
X149950000Y-126050000D03*
X150000000Y-114000000D03*
D16*
X137750000Y-114050000D03*
D14*
X116535000Y-101800000D03*
D15*
X119075000Y-101800000D03*
X119075000Y-94180000D03*
X116535000Y-94180000D03*
D19*
X106750000Y-86500000D03*
D20*
X106750000Y-88500000D03*
X106750000Y-90500000D03*
X106750000Y-92500000D03*
X106750000Y-94500000D03*
X106750000Y-96500000D03*
%LPD*%
M02*
